<?xml version="1.0" encoding="UTF-8"?>
<svg xmlns="http://www.w3.org/2000/svg"
     xmlns:xlink="http://www.w3.org/1999/xlink"
     xmlns:gadfly="http://www.gadflyjl.org/ns"
     version="1.2"
     width="203.2mm" height="203.2mm" viewBox="0 0 203.2 203.2"
     stroke="none"
     fill="#000000"
     stroke-width="0.3"
     font-size="3.88"
>
<g class="plotroot xscalable yscalable" id="img-0f317bd1-1">
  <g font-size="3.88" font-family="'PT Sans','Helvetica Neue','Helvetica',sans-serif" fill="rgba(86,73,85,1)" stroke="#000000" stroke-opacity="0.000" id="img-0f317bd1-2">
    <g transform="translate(159.22,89.99)">
      <g class="primitive">
        <text text-anchor="middle" dy="0.6em">Value</text>
      </g>
    </g>
  </g>
  <g class="guide xlabels" font-size="2.82" font-family="'PT Sans Caption','Helvetica Neue','Helvetica',sans-serif" fill="rgba(108,96,107,1)" id="img-0f317bd1-3">
    <g transform="translate(122.23,83.32)">
      <g class="primitive">
        <text text-anchor="middle" dy="0.6em">-5</text>
      </g>
    </g>
    <g transform="translate(140.72,83.32)">
      <g class="primitive">
        <text text-anchor="middle" dy="0.6em">0</text>
      </g>
    </g>
    <g transform="translate(159.22,83.32)">
      <g class="primitive">
        <text text-anchor="middle" dy="0.6em">5</text>
      </g>
    </g>
    <g transform="translate(177.71,83.32)">
      <g class="primitive">
        <text text-anchor="middle" dy="0.6em">10</text>
      </g>
    </g>
    <g transform="translate(196.2,83.32)">
      <g class="primitive">
        <text text-anchor="middle" dy="0.6em">15</text>
      </g>
    </g>
  </g>
  <g clip-path="url(#img-0f317bd1-4)">
    <g id="img-0f317bd1-5">
      <g pointer-events="visible" fill-opacity="0" fill="rgba(0,0,0,0)" stroke="#000000" stroke-opacity="0.000" class="guide background" id="img-0f317bd1-6">
        <g transform="translate(159.22,46.46)">
          <path d="M-38.98,-35.85 L 38.98 -35.85 38.98 35.85 -38.98 35.85 z" class="primitive"/>
        </g>
      </g>
      <g class="guide ygridlines xfixed" stroke-dasharray="0.5,0.5" stroke-width="0.2" stroke="#D0D0E0" id="img-0f317bd1-7">
        <g transform="translate(159.22,80.32)">
          <path fill="none" d="M-38.98,0 L 38.98 0" class="primitive"/>
        </g>
        <g transform="translate(159.22,63.39)">
          <path fill="none" d="M-38.98,0 L 38.98 0" class="primitive"/>
        </g>
        <g transform="translate(159.22,46.46)">
          <path fill="none" d="M-38.98,0 L 38.98 0" class="primitive"/>
        </g>
        <g transform="translate(159.22,29.54)">
          <path fill="none" d="M-38.98,0 L 38.98 0" class="primitive"/>
        </g>
        <g transform="translate(159.22,12.61)">
          <path fill="none" d="M-38.98,0 L 38.98 0" class="primitive"/>
        </g>
      </g>
      <g class="guide xgridlines yfixed" stroke-dasharray="0.5,0.5" stroke-width="0.2" stroke="#D0D0E0" id="img-0f317bd1-8">
        <g transform="translate(122.23,46.46)">
          <path fill="none" d="M0,-35.85 L 0 35.85" class="primitive"/>
        </g>
        <g transform="translate(140.72,46.46)">
          <path fill="none" d="M0,-35.85 L 0 35.85" class="primitive"/>
        </g>
        <g transform="translate(159.22,46.46)">
          <path fill="none" d="M0,-35.85 L 0 35.85" class="primitive"/>
        </g>
        <g transform="translate(177.71,46.46)">
          <path fill="none" d="M0,-35.85 L 0 35.85" class="primitive"/>
        </g>
        <g transform="translate(196.2,46.46)">
          <path fill="none" d="M0,-35.85 L 0 35.85" class="primitive"/>
        </g>
      </g>
      <g class="plotpanel" id="img-0f317bd1-9">
        <metadata>
          <boundingbox value="120.23166666666665mm 10.611666666666665mm 77.96833333333333mm 71.70333333333333mm"/>
          <unitbox value="-5.540771951961425 0.4118162572005318 21.08154390392285 -0.4236325144010635"/>
        </metadata>
        <g shape-rendering="crispEdges" stroke-width="0.3" id="img-0f317bd1-10">
          <g stroke="#000000" stroke-opacity="0.000" class="geometry" id="img-0f317bd1-11">
            <g transform="translate(159.22,71.85)" fill="rgba(0,182,141,1)">
              <path d="M-1.87,-8.46 L 1.87 -8.46 1.87 8.46 -1.87 8.46 z" class="primitive"/>
            </g>
            <g transform="translate(162.91,73.46)" fill="rgba(0,182,141,1)">
              <path d="M-1.87,-6.85 L 1.87 -6.85 1.87 6.85 -1.87 6.85 z" class="primitive"/>
            </g>
            <g transform="translate(170.31,73.04)" fill="rgba(0,182,141,1)">
              <path d="M-1.87,-7.28 L 1.87 -7.28 1.87 7.28 -1.87 7.28 z" class="primitive"/>
            </g>
            <g transform="translate(144.42,74.39)" fill="rgba(0,182,141,1)">
              <path d="M-1.87,-5.92 L 1.87 -5.92 1.87 5.92 -1.87 5.92 z" class="primitive"/>
            </g>
            <g transform="translate(174.01,72.95)" fill="rgba(0,182,141,1)">
              <path d="M-1.87,-7.36 L 1.87 -7.36 1.87 7.36 -1.87 7.36 z" class="primitive"/>
            </g>
            <g transform="translate(177.71,72.36)" fill="rgba(0,182,141,1)">
              <path d="M-1.87,-7.96 L 1.87 -7.96 1.87 7.96 -1.87 7.96 z" class="primitive"/>
            </g>
            <g transform="translate(140.72,72.28)" fill="rgba(0,182,141,1)">
              <path d="M-1.87,-8.04 L 1.87 -8.04 1.87 8.04 -1.87 8.04 z" class="primitive"/>
            </g>
            <g transform="translate(155.52,71.85)" fill="rgba(0,182,141,1)">
              <path d="M-1.87,-8.46 L 1.87 -8.46 1.87 8.46 -1.87 8.46 z" class="primitive"/>
            </g>
            <g transform="translate(166.61,72.11)" fill="rgba(0,182,141,1)">
              <path d="M-1.87,-8.21 L 1.87 -8.21 1.87 8.21 -1.87 8.21 z" class="primitive"/>
            </g>
            <g transform="translate(151.82,72.61)" fill="rgba(0,182,141,1)">
              <path d="M-1.87,-7.7 L 1.87 -7.7 1.87 7.7 -1.87 7.7 z" class="primitive"/>
            </g>
            <g transform="translate(148.12,71.94)" fill="rgba(0,182,141,1)">
              <path d="M-1.87,-8.38 L 1.87 -8.38 1.87 8.38 -1.87 8.38 z" class="primitive"/>
            </g>
            <g transform="translate(159.22,56.62)" fill="rgba(255,108,173,1)">
              <path d="M-1.87,-6.77 L 1.87 -6.77 1.87 6.77 -1.87 6.77 z" class="primitive"/>
            </g>
            <g transform="translate(162.91,58.14)" fill="rgba(255,108,173,1)">
              <path d="M-1.87,-8.46 L 1.87 -8.46 1.87 8.46 -1.87 8.46 z" class="primitive"/>
            </g>
            <g transform="translate(170.31,57.97)" fill="rgba(255,108,173,1)">
              <path d="M-1.87,-7.79 L 1.87 -7.79 1.87 7.79 -1.87 7.79 z" class="primitive"/>
            </g>
            <g transform="translate(144.42,60.51)" fill="rgba(255,108,173,1)">
              <path d="M-1.87,-7.96 L 1.87 -7.96 1.87 7.96 -1.87 7.96 z" class="primitive"/>
            </g>
            <g transform="translate(174.01,57.72)" fill="rgba(255,108,173,1)">
              <path d="M-1.87,-7.87 L 1.87 -7.87 1.87 7.87 -1.87 7.87 z" class="primitive"/>
            </g>
            <g transform="translate(177.71,55.6)" fill="rgba(255,108,173,1)">
              <path d="M-1.87,-8.8 L 1.87 -8.8 1.87 8.8 -1.87 8.8 z" class="primitive"/>
            </g>
            <g transform="translate(140.72,54.67)" fill="rgba(255,108,173,1)">
              <path d="M-1.87,-9.56 L 1.87 -9.56 1.87 9.56 -1.87 9.56 z" class="primitive"/>
            </g>
            <g transform="translate(155.52,57.04)" fill="rgba(255,108,173,1)">
              <path d="M-1.87,-6.35 L 1.87 -6.35 1.87 6.35 -1.87 6.35 z" class="primitive"/>
            </g>
            <g transform="translate(166.61,56.62)" fill="rgba(255,108,173,1)">
              <path d="M-1.87,-7.28 L 1.87 -7.28 1.87 7.28 -1.87 7.28 z" class="primitive"/>
            </g>
            <g transform="translate(151.82,57.55)" fill="rgba(255,108,173,1)">
              <path d="M-1.87,-7.36 L 1.87 -7.36 1.87 7.36 -1.87 7.36 z" class="primitive"/>
            </g>
            <g transform="translate(148.12,57.13)" fill="rgba(255,108,173,1)">
              <path d="M-1.87,-6.43 L 1.87 -6.43 1.87 6.43 -1.87 6.43 z" class="primitive"/>
            </g>
            <g transform="translate(159.22,43.67)" fill="rgba(211,202,57,1)">
              <path d="M-1.87,-6.18 L 1.87 -6.18 1.87 6.18 -1.87 6.18 z" class="primitive"/>
            </g>
            <g transform="translate(162.91,41.89)" fill="rgba(211,202,57,1)">
              <path d="M-1.87,-7.79 L 1.87 -7.79 1.87 7.79 -1.87 7.79 z" class="primitive"/>
            </g>
            <g transform="translate(170.31,42.32)" fill="rgba(211,202,57,1)">
              <path d="M-1.87,-7.87 L 1.87 -7.87 1.87 7.87 -1.87 7.87 z" class="primitive"/>
            </g>
            <g transform="translate(144.42,44.43)" fill="rgba(211,202,57,1)">
              <path d="M-1.87,-8.12 L 1.87 -8.12 1.87 8.12 -1.87 8.12 z" class="primitive"/>
            </g>
            <g transform="translate(174.01,43.16)" fill="rgba(211,202,57,1)">
              <path d="M-1.87,-6.69 L 1.87 -6.69 1.87 6.69 -1.87 6.69 z" class="primitive"/>
            </g>
            <g transform="translate(177.71,38.17)" fill="rgba(211,202,57,1)">
              <path d="M-1.87,-8.63 L 1.87 -8.63 1.87 8.63 -1.87 8.63 z" class="primitive"/>
            </g>
            <g transform="translate(140.72,37.66)" fill="rgba(211,202,57,1)">
              <path d="M-1.87,-7.45 L 1.87 -7.45 1.87 7.45 -1.87 7.45 z" class="primitive"/>
            </g>
            <g transform="translate(155.52,44.09)" fill="rgba(211,202,57,1)">
              <path d="M-1.87,-6.6 L 1.87 -6.6 1.87 6.6 -1.87 6.6 z" class="primitive"/>
            </g>
            <g transform="translate(166.61,40.45)" fill="rgba(211,202,57,1)">
              <path d="M-1.87,-8.89 L 1.87 -8.89 1.87 8.89 -1.87 8.89 z" class="primitive"/>
            </g>
            <g transform="translate(151.82,42.66)" fill="rgba(211,202,57,1)">
              <path d="M-1.87,-7.53 L 1.87 -7.53 1.87 7.53 -1.87 7.53 z" class="primitive"/>
            </g>
            <g transform="translate(148.12,41.81)" fill="rgba(211,202,57,1)">
              <path d="M-1.87,-8.89 L 1.87 -8.89 1.87 8.89 -1.87 8.89 z" class="primitive"/>
            </g>
            <g transform="translate(159.22,29.45)" fill="rgba(0,190,255,1)">
              <path d="M-1.87,-8.04 L 1.87 -8.04 1.87 8.04 -1.87 8.04 z" class="primitive"/>
            </g>
            <g transform="translate(162.91,26.74)" fill="rgba(0,190,255,1)">
              <path d="M-1.87,-7.36 L 1.87 -7.36 1.87 7.36 -1.87 7.36 z" class="primitive"/>
            </g>
            <g transform="translate(170.31,26.66)" fill="rgba(0,190,255,1)">
              <path d="M-1.87,-7.79 L 1.87 -7.79 1.87 7.79 -1.87 7.79 z" class="primitive"/>
            </g>
            <g transform="translate(144.42,29.79)" fill="rgba(0,190,255,1)">
              <path d="M-1.87,-6.52 L 1.87 -6.52 1.87 6.52 -1.87 6.52 z" class="primitive"/>
            </g>
            <g transform="translate(174.01,27.93)" fill="rgba(0,190,255,1)">
              <path d="M-1.87,-8.55 L 1.87 -8.55 1.87 8.55 -1.87 8.55 z" class="primitive"/>
            </g>
            <g transform="translate(177.71,22.77)" fill="rgba(0,190,255,1)">
              <path d="M-1.87,-6.77 L 1.87 -6.77 1.87 6.77 -1.87 6.77 z" class="primitive"/>
            </g>
            <g transform="translate(140.72,22.51)" fill="rgba(0,190,255,1)">
              <path d="M-1.87,-7.7 L 1.87 -7.7 1.87 7.7 -1.87 7.7 z" class="primitive"/>
            </g>
            <g transform="translate(155.52,29.54)" fill="rgba(0,190,255,1)">
              <path d="M-1.87,-7.96 L 1.87 -7.96 1.87 7.96 -1.87 7.96 z" class="primitive"/>
            </g>
            <g transform="translate(166.61,23.53)" fill="rgba(0,190,255,1)">
              <path d="M-1.87,-8.04 L 1.87 -8.04 1.87 8.04 -1.87 8.04 z" class="primitive"/>
            </g>
            <g transform="translate(151.82,26.74)" fill="rgba(0,190,255,1)">
              <path d="M-1.87,-8.38 L 1.87 -8.38 1.87 8.38 -1.87 8.38 z" class="primitive"/>
            </g>
            <g transform="translate(148.12,25.39)" fill="rgba(0,190,255,1)">
              <path d="M-1.87,-7.53 L 1.87 -7.53 1.87 7.53 -1.87 7.53 z" class="primitive"/>
            </g>
          </g>
        </g>
      </g>
    </g>
  </g>
  <g class="guide ylabels" font-size="2.82" font-family="'PT Sans Caption','Helvetica Neue','Helvetica',sans-serif" fill="rgba(108,96,107,1)" id="img-0f317bd1-12">
    <g transform="translate(119.23,80.32)">
      <g class="primitive">
        <text text-anchor="end" dy="0.35em">0.0</text>
      </g>
    </g>
    <g transform="translate(119.23,63.39)">
      <g class="primitive">
        <text text-anchor="end" dy="0.35em">0.1</text>
      </g>
    </g>
    <g transform="translate(119.23,46.46)">
      <g class="primitive">
        <text text-anchor="end" dy="0.35em">0.2</text>
      </g>
    </g>
    <g transform="translate(119.23,29.54)">
      <g class="primitive">
        <text text-anchor="end" dy="0.35em">0.3</text>
      </g>
    </g>
    <g transform="translate(119.23,12.61)">
      <g class="primitive">
        <text text-anchor="end" dy="0.35em">0.4</text>
      </g>
    </g>
  </g>
  <g font-size="3.88" font-family="'PT Sans','Helvetica Neue','Helvetica',sans-serif" fill="rgba(86,73,85,1)" stroke="#000000" stroke-opacity="0.000" id="img-0f317bd1-13">
    <g transform="translate(110.41,44.46)">
      <g class="primitive">
        <text text-anchor="middle" dy="0.35em" transform="rotate(-90,0, 2)">Density</text>
      </g>
    </g>
  </g>
  <g font-size="3.88" font-family="'PT Sans','Helvetica Neue','Helvetica',sans-serif" fill="rgba(86,73,85,1)" stroke="#000000" stroke-opacity="0.000" id="img-0f317bd1-14">
    <g transform="translate(159.22,5)">
      <g class="primitive">
        <text text-anchor="middle" dy="0.6em">priorpredk</text>
      </g>
    </g>
  </g>
</g>
<g class="plotroot xscalable yscalable" id="img-0f317bd1-15">
  <g font-size="3.88" font-family="'PT Sans','Helvetica Neue','Helvetica',sans-serif" fill="rgba(86,73,85,1)" stroke="#000000" stroke-opacity="0.000" id="img-0f317bd1-16">
    <g transform="translate(57.62,89.99)">
      <g class="primitive">
        <text text-anchor="middle" dy="0.6em">Value</text>
      </g>
    </g>
  </g>
  <g class="guide xlabels" font-size="2.82" font-family="'PT Sans Caption','Helvetica Neue','Helvetica',sans-serif" fill="rgba(108,96,107,1)" id="img-0f317bd1-17">
    <g transform="translate(20.63,83.32)">
      <g class="primitive">
        <text text-anchor="middle" dy="0.6em">-5</text>
      </g>
    </g>
    <g transform="translate(39.12,83.32)">
      <g class="primitive">
        <text text-anchor="middle" dy="0.6em">0</text>
      </g>
    </g>
    <g transform="translate(57.62,83.32)">
      <g class="primitive">
        <text text-anchor="middle" dy="0.6em">5</text>
      </g>
    </g>
    <g transform="translate(76.11,83.32)">
      <g class="primitive">
        <text text-anchor="middle" dy="0.6em">10</text>
      </g>
    </g>
    <g transform="translate(94.6,83.32)">
      <g class="primitive">
        <text text-anchor="middle" dy="0.6em">15</text>
      </g>
    </g>
  </g>
  <g clip-path="url(#img-0f317bd1-18)">
    <g id="img-0f317bd1-19">
      <g pointer-events="visible" fill-opacity="0" fill="rgba(0,0,0,0)" stroke="#000000" stroke-opacity="0.000" class="guide background" id="img-0f317bd1-20">
        <g transform="translate(57.62,46.46)">
          <path d="M-38.98,-35.85 L 38.98 -35.85 38.98 35.85 -38.98 35.85 z" class="primitive"/>
        </g>
      </g>
      <g class="guide ygridlines xfixed" stroke-dasharray="0.5,0.5" stroke-width="0.2" stroke="#D0D0E0" id="img-0f317bd1-21">
        <g transform="translate(57.62,80.32)">
          <path fill="none" d="M-38.98,0 L 38.98 0" class="primitive"/>
        </g>
        <g transform="translate(57.62,63.39)">
          <path fill="none" d="M-38.98,0 L 38.98 0" class="primitive"/>
        </g>
        <g transform="translate(57.62,46.46)">
          <path fill="none" d="M-38.98,0 L 38.98 0" class="primitive"/>
        </g>
        <g transform="translate(57.62,29.54)">
          <path fill="none" d="M-38.98,0 L 38.98 0" class="primitive"/>
        </g>
        <g transform="translate(57.62,12.61)">
          <path fill="none" d="M-38.98,0 L 38.98 0" class="primitive"/>
        </g>
      </g>
      <g class="guide xgridlines yfixed" stroke-dasharray="0.5,0.5" stroke-width="0.2" stroke="#D0D0E0" id="img-0f317bd1-22">
        <g transform="translate(20.63,46.46)">
          <path fill="none" d="M0,-35.85 L 0 35.85" class="primitive"/>
        </g>
        <g transform="translate(39.12,46.46)">
          <path fill="none" d="M0,-35.85 L 0 35.85" class="primitive"/>
        </g>
        <g transform="translate(57.62,46.46)">
          <path fill="none" d="M0,-35.85 L 0 35.85" class="primitive"/>
        </g>
        <g transform="translate(76.11,46.46)">
          <path fill="none" d="M0,-35.85 L 0 35.85" class="primitive"/>
        </g>
        <g transform="translate(94.6,46.46)">
          <path fill="none" d="M0,-35.85 L 0 35.85" class="primitive"/>
        </g>
      </g>
      <g class="plotpanel" id="img-0f317bd1-23">
        <metadata>
          <boundingbox value="18.63166666666666mm 10.611666666666665mm 77.96833333333332mm 71.70333333333333mm"/>
          <unitbox value="-5.540771951961425 0.8236325144010636 21.08154390392285 -0.847265028802127"/>
        </metadata>
        <g shape-rendering="crispEdges" stroke-width="0.3" id="img-0f317bd1-24">
          <g stroke="#000000" stroke-opacity="0.000" class="geometry" id="img-0f317bd1-25">
            <g transform="translate(57.62,71.98)" fill="rgba(0,182,141,1)">
              <path d="M-1.87,-8.34 L 1.87 -8.34 1.87 8.34 -1.87 8.34 z" class="primitive"/>
            </g>
            <g transform="translate(53.92,73.04)" fill="rgba(0,182,141,1)">
              <path d="M-1.87,-7.28 L 1.87 -7.28 1.87 7.28 -1.87 7.28 z" class="primitive"/>
            </g>
            <g transform="translate(68.71,76.38)" fill="rgba(0,182,141,1)">
              <path d="M-1.87,-3.94 L 1.87 -3.94 1.87 3.94 -1.87 3.94 z" class="primitive"/>
            </g>
            <g transform="translate(72.41,78.71)" fill="rgba(0,182,141,1)">
              <path d="M-1.87,-1.61 L 1.87 -1.61 1.87 1.61 -1.87 1.61 z" class="primitive"/>
            </g>
            <g transform="translate(61.31,73.21)" fill="rgba(0,182,141,1)">
              <path d="M-1.87,-7.11 L 1.87 -7.11 1.87 7.11 -1.87 7.11 z" class="primitive"/>
            </g>
            <g transform="translate(46.52,77.52)" fill="rgba(0,182,141,1)">
              <path d="M-1.87,-2.79 L 1.87 -2.79 1.87 2.79 -1.87 2.79 z" class="primitive"/>
            </g>
            <g transform="translate(65.01,75.66)" fill="rgba(0,182,141,1)">
              <path d="M-1.87,-4.65 L 1.87 -4.65 1.87 4.65 -1.87 4.65 z" class="primitive"/>
            </g>
            <g transform="translate(42.82,79)" fill="rgba(0,182,141,1)">
              <path d="M-1.87,-1.31 L 1.87 -1.31 1.87 1.31 -1.87 1.31 z" class="primitive"/>
            </g>
            <g transform="translate(76.11,80.02)" fill="rgba(0,182,141,1)">
              <path d="M-1.87,-0.3 L 1.87 -0.3 1.87 0.3 -1.87 0.3 z" class="primitive"/>
            </g>
            <g transform="translate(39.12,79.76)" fill="rgba(0,182,141,1)">
              <path d="M-1.87,-0.55 L 1.87 -0.55 1.87 0.55 -1.87 0.55 z" class="primitive"/>
            </g>
            <g transform="translate(50.22,75.87)" fill="rgba(0,182,141,1)">
              <path d="M-1.87,-4.44 L 1.87 -4.44 1.87 4.44 -1.87 4.44 z" class="primitive"/>
            </g>
            <g transform="translate(57.62,55.52)" fill="rgba(255,108,173,1)">
              <path d="M-1.87,-8.12 L 1.87 -8.12 1.87 8.12 -1.87 8.12 z" class="primitive"/>
            </g>
            <g transform="translate(53.92,58.82)" fill="rgba(255,108,173,1)">
              <path d="M-1.87,-6.94 L 1.87 -6.94 1.87 6.94 -1.87 6.94 z" class="primitive"/>
            </g>
            <g transform="translate(68.71,69.27)" fill="rgba(255,108,173,1)">
              <path d="M-1.87,-3.17 L 1.87 -3.17 1.87 3.17 -1.87 3.17 z" class="primitive"/>
            </g>
            <g transform="translate(72.41,75.91)" fill="rgba(255,108,173,1)">
              <path d="M-1.87,-1.18 L 1.87 -1.18 1.87 1.18 -1.87 1.18 z" class="primitive"/>
            </g>
            <g transform="translate(61.31,59.12)" fill="rgba(255,108,173,1)">
              <path d="M-1.87,-6.98 L 1.87 -6.98 1.87 6.98 -1.87 6.98 z" class="primitive"/>
            </g>
            <g transform="translate(46.52,71.51)" fill="rgba(255,108,173,1)">
              <path d="M-1.87,-3.22 L 1.87 -3.22 1.87 3.22 -1.87 3.22 z" class="primitive"/>
            </g>
            <g transform="translate(65.01,65.42)" fill="rgba(255,108,173,1)">
              <path d="M-1.87,-5.59 L 1.87 -5.59 1.87 5.59 -1.87 5.59 z" class="primitive"/>
            </g>
            <g transform="translate(42.82,76.55)" fill="rgba(255,108,173,1)">
              <path d="M-1.87,-1.14 L 1.87 -1.14 1.87 1.14 -1.87 1.14 z" class="primitive"/>
            </g>
            <g transform="translate(76.11,79.17)" fill="rgba(255,108,173,1)">
              <path d="M-1.87,-0.55 L 1.87 -0.55 1.87 0.55 -1.87 0.55 z" class="primitive"/>
            </g>
            <g transform="translate(39.12,78.92)" fill="rgba(255,108,173,1)">
              <path d="M-1.87,-0.3 L 1.87 -0.3 1.87 0.3 -1.87 0.3 z" class="primitive"/>
            </g>
            <g transform="translate(50.22,66.31)" fill="rgba(255,108,173,1)">
              <path d="M-1.87,-5.12 L 1.87 -5.12 1.87 5.12 -1.87 5.12 z" class="primitive"/>
            </g>
            <g transform="translate(57.62,39.61)" fill="rgba(211,202,57,1)">
              <path d="M-1.87,-7.79 L 1.87 -7.79 1.87 7.79 -1.87 7.79 z" class="primitive"/>
            </g>
            <g transform="translate(53.92,45.07)" fill="rgba(211,202,57,1)">
              <path d="M-1.87,-6.81 L 1.87 -6.81 1.87 6.81 -1.87 6.81 z" class="primitive"/>
            </g>
            <g transform="translate(68.71,62.8)" fill="rgba(211,202,57,1)">
              <path d="M-1.87,-3.3 L 1.87 -3.3 1.87 3.3 -1.87 3.3 z" class="primitive"/>
            </g>
            <g transform="translate(72.41,73.12)" fill="rgba(211,202,57,1)">
              <path d="M-1.87,-1.61 L 1.87 -1.61 1.87 1.61 -1.87 1.61 z" class="primitive"/>
            </g>
            <g transform="translate(61.31,45.07)" fill="rgba(211,202,57,1)">
              <path d="M-1.87,-7.07 L 1.87 -7.07 1.87 7.07 -1.87 7.07 z" class="primitive"/>
            </g>
            <g transform="translate(46.52,64.45)" fill="rgba(211,202,57,1)">
              <path d="M-1.87,-3.85 L 1.87 -3.85 1.87 3.85 -1.87 3.85 z" class="primitive"/>
            </g>
            <g transform="translate(65.01,55.22)" fill="rgba(211,202,57,1)">
              <path d="M-1.87,-4.61 L 1.87 -4.61 1.87 4.61 -1.87 4.61 z" class="primitive"/>
            </g>
            <g transform="translate(42.82,73.93)" fill="rgba(211,202,57,1)">
              <path d="M-1.87,-1.48 L 1.87 -1.48 1.87 1.48 -1.87 1.48 z" class="primitive"/>
            </g>
            <g transform="translate(76.11,78.28)" fill="rgba(211,202,57,1)">
              <path d="M-1.87,-0.34 L 1.87 -0.34 1.87 0.34 -1.87 0.34 z" class="primitive"/>
            </g>
            <g transform="translate(39.12,78.28)" fill="rgba(211,202,57,1)">
              <path d="M-1.87,-0.34 L 1.87 -0.34 1.87 0.34 -1.87 0.34 z" class="primitive"/>
            </g>
            <g transform="translate(50.22,56.07)" fill="rgba(211,202,57,1)">
              <path d="M-1.87,-5.12 L 1.87 -5.12 1.87 5.12 -1.87 5.12 z" class="primitive"/>
            </g>
            <g transform="translate(57.62,24.08)" fill="rgba(0,190,255,1)">
              <path d="M-1.87,-7.74 L 1.87 -7.74 1.87 7.74 -1.87 7.74 z" class="primitive"/>
            </g>
            <g transform="translate(53.92,31.53)" fill="rgba(0,190,255,1)">
              <path d="M-1.87,-6.73 L 1.87 -6.73 1.87 6.73 -1.87 6.73 z" class="primitive"/>
            </g>
            <g transform="translate(68.71,56.53)" fill="rgba(0,190,255,1)">
              <path d="M-1.87,-2.96 L 1.87 -2.96 1.87 2.96 -1.87 2.96 z" class="primitive"/>
            </g>
            <g transform="translate(72.41,69.86)" fill="rgba(0,190,255,1)">
              <path d="M-1.87,-1.65 L 1.87 -1.65 1.87 1.65 -1.87 1.65 z" class="primitive"/>
            </g>
            <g transform="translate(61.31,31.06)" fill="rgba(0,190,255,1)">
              <path d="M-1.87,-6.94 L 1.87 -6.94 1.87 6.94 -1.87 6.94 z" class="primitive"/>
            </g>
            <g transform="translate(46.52,56.79)" fill="rgba(0,190,255,1)">
              <path d="M-1.87,-3.81 L 1.87 -3.81 1.87 3.81 -1.87 3.81 z" class="primitive"/>
            </g>
            <g transform="translate(65.01,45.41)" fill="rgba(0,190,255,1)">
              <path d="M-1.87,-5.2 L 1.87 -5.2 1.87 5.2 -1.87 5.2 z" class="primitive"/>
            </g>
            <g transform="translate(42.82,71.01)" fill="rgba(0,190,255,1)">
              <path d="M-1.87,-1.44 L 1.87 -1.44 1.87 1.44 -1.87 1.44 z" class="primitive"/>
            </g>
            <g transform="translate(76.11,77.69)" fill="rgba(0,190,255,1)">
              <path d="M-1.87,-0.25 L 1.87 -0.25 1.87 0.25 -1.87 0.25 z" class="primitive"/>
            </g>
            <g transform="translate(39.12,77.61)" fill="rgba(0,190,255,1)">
              <path d="M-1.87,-0.34 L 1.87 -0.34 1.87 0.34 -1.87 0.34 z" class="primitive"/>
            </g>
            <g transform="translate(50.22,45.7)" fill="rgba(0,190,255,1)">
              <path d="M-1.87,-5.25 L 1.87 -5.25 1.87 5.25 -1.87 5.25 z" class="primitive"/>
            </g>
          </g>
        </g>
      </g>
    </g>
  </g>
  <g class="guide ylabels" font-size="2.82" font-family="'PT Sans Caption','Helvetica Neue','Helvetica',sans-serif" fill="rgba(108,96,107,1)" id="img-0f317bd1-26">
    <g transform="translate(17.63,80.32)">
      <g class="primitive">
        <text text-anchor="end" dy="0.35em">0.0</text>
      </g>
    </g>
    <g transform="translate(17.63,63.39)">
      <g class="primitive">
        <text text-anchor="end" dy="0.35em">0.2</text>
      </g>
    </g>
    <g transform="translate(17.63,46.46)">
      <g class="primitive">
        <text text-anchor="end" dy="0.35em">0.4</text>
      </g>
    </g>
    <g transform="translate(17.63,29.54)">
      <g class="primitive">
        <text text-anchor="end" dy="0.35em">0.6</text>
      </g>
    </g>
    <g transform="translate(17.63,12.61)">
      <g class="primitive">
        <text text-anchor="end" dy="0.35em">0.8</text>
      </g>
    </g>
  </g>
  <g font-size="3.88" font-family="'PT Sans','Helvetica Neue','Helvetica',sans-serif" fill="rgba(86,73,85,1)" stroke="#000000" stroke-opacity="0.000" id="img-0f317bd1-27">
    <g transform="translate(8.81,44.46)">
      <g class="primitive">
        <text text-anchor="middle" dy="0.35em" transform="rotate(-90,0, 2)">Density</text>
      </g>
    </g>
  </g>
  <g font-size="3.88" font-family="'PT Sans','Helvetica Neue','Helvetica',sans-serif" fill="rgba(86,73,85,1)" stroke="#000000" stroke-opacity="0.000" id="img-0f317bd1-28">
    <g transform="translate(57.62,5)">
      <g class="primitive">
        <text text-anchor="middle" dy="0.6em">postpredk</text>
      </g>
    </g>
  </g>
</g>
<defs>
  <clipPath id="img-0f317bd1-4">
    <path d="M120.23,10.61 L 198.2 10.61 198.2 82.32 120.23 82.32" />
  </clipPath>
  <clipPath id="img-0f317bd1-18">
    <path d="M18.63,10.61 L 96.6 10.61 96.6 82.32 18.63 82.32" />
  </clipPath>
</defs>
</svg>
