<?xml version="1.0" encoding="UTF-8"?>
<svg xmlns="http://www.w3.org/2000/svg"
     xmlns:xlink="http://www.w3.org/1999/xlink"
     xmlns:gadfly="http://www.gadflyjl.org/ns"
     version="1.2"
     width="203.2mm" height="203.2mm" viewBox="0 0 203.2 203.2"
     stroke="none"
     fill="#000000"
     stroke-width="0.3"
     font-size="3.88"
>
<g class="plotroot xscalable yscalable" id="img-6b2adb4c-1">
  <g font-size="3.88" font-family="'PT Sans','Helvetica Neue','Helvetica',sans-serif" fill="rgba(86,73,85,1)" stroke="#000000" stroke-opacity="0.000" id="img-6b2adb4c-2">
    <g transform="translate(159.22,89.99)">
      <g class="primitive">
        <text text-anchor="middle" dy="0.6em">Value</text>
      </g>
    </g>
  </g>
  <g class="guide xlabels" font-size="2.82" font-family="'PT Sans Caption','Helvetica Neue','Helvetica',sans-serif" fill="rgba(108,96,107,1)" id="img-6b2adb4c-3">
    <g transform="translate(122.23,83.32)">
      <g class="primitive">
        <text text-anchor="middle" dy="0.6em">-5</text>
      </g>
    </g>
    <g transform="translate(140.72,83.32)">
      <g class="primitive">
        <text text-anchor="middle" dy="0.6em">0</text>
      </g>
    </g>
    <g transform="translate(159.22,83.32)">
      <g class="primitive">
        <text text-anchor="middle" dy="0.6em">5</text>
      </g>
    </g>
    <g transform="translate(177.71,83.32)">
      <g class="primitive">
        <text text-anchor="middle" dy="0.6em">10</text>
      </g>
    </g>
    <g transform="translate(196.2,83.32)">
      <g class="primitive">
        <text text-anchor="middle" dy="0.6em">15</text>
      </g>
    </g>
  </g>
  <g clip-path="url(#img-6b2adb4c-4)">
    <g id="img-6b2adb4c-5">
      <g pointer-events="visible" fill-opacity="0" fill="rgba(0,0,0,0)" stroke="#000000" stroke-opacity="0.000" class="guide background" id="img-6b2adb4c-6">
        <g transform="translate(159.22,46.46)">
          <path d="M-38.98,-35.85 L 38.98 -35.85 38.98 35.85 -38.98 35.85 z" class="primitive"/>
        </g>
      </g>
      <g class="guide ygridlines xfixed" stroke-dasharray="0.5,0.5" stroke-width="0.2" stroke="#D0D0E0" id="img-6b2adb4c-7">
        <g transform="translate(159.22,80.32)">
          <path fill="none" d="M-38.98,0 L 38.98 0" class="primitive"/>
        </g>
        <g transform="translate(159.22,66.77)">
          <path fill="none" d="M-38.98,0 L 38.98 0" class="primitive"/>
        </g>
        <g transform="translate(159.22,53.23)">
          <path fill="none" d="M-38.98,0 L 38.98 0" class="primitive"/>
        </g>
        <g transform="translate(159.22,39.69)">
          <path fill="none" d="M-38.98,0 L 38.98 0" class="primitive"/>
        </g>
        <g transform="translate(159.22,26.15)">
          <path fill="none" d="M-38.98,0 L 38.98 0" class="primitive"/>
        </g>
        <g transform="translate(159.22,12.61)">
          <path fill="none" d="M-38.98,0 L 38.98 0" class="primitive"/>
        </g>
      </g>
      <g class="guide xgridlines yfixed" stroke-dasharray="0.5,0.5" stroke-width="0.2" stroke="#D0D0E0" id="img-6b2adb4c-8">
        <g transform="translate(122.23,46.46)">
          <path fill="none" d="M0,-35.85 L 0 35.85" class="primitive"/>
        </g>
        <g transform="translate(140.72,46.46)">
          <path fill="none" d="M0,-35.85 L 0 35.85" class="primitive"/>
        </g>
        <g transform="translate(159.22,46.46)">
          <path fill="none" d="M0,-35.85 L 0 35.85" class="primitive"/>
        </g>
        <g transform="translate(177.71,46.46)">
          <path fill="none" d="M0,-35.85 L 0 35.85" class="primitive"/>
        </g>
        <g transform="translate(196.2,46.46)">
          <path fill="none" d="M0,-35.85 L 0 35.85" class="primitive"/>
        </g>
      </g>
      <g class="plotpanel" id="img-6b2adb4c-9">
        <metadata>
          <boundingbox value="120.23166666666665mm 10.611666666666665mm 77.96833333333333mm 71.70333333333333mm"/>
          <unitbox value="-5.540771951961425 0.5147703215006647 21.08154390392285 -0.5295406430013293"/>
        </metadata>
        <g shape-rendering="crispEdges" stroke-width="0.3" id="img-6b2adb4c-10">
          <g stroke="#000000" stroke-opacity="0.000" class="geometry" id="img-6b2adb4c-11">
            <g transform="translate(140.72,73.14)" fill="rgba(0,182,141,1)">
              <path d="M-1.87,-7.18 L 1.87 -7.18 1.87 7.18 -1.87 7.18 z" class="primitive"/>
            </g>
            <g transform="translate(177.71,73.48)" fill="rgba(0,182,141,1)">
              <path d="M-1.87,-6.84 L 1.87 -6.84 1.87 6.84 -1.87 6.84 z" class="primitive"/>
            </g>
            <g transform="translate(174.01,73.61)" fill="rgba(0,182,141,1)">
              <path d="M-1.87,-6.7 L 1.87 -6.7 1.87 6.7 -1.87 6.7 z" class="primitive"/>
            </g>
            <g transform="translate(170.31,75.3)" fill="rgba(0,182,141,1)">
              <path d="M-1.87,-5.01 L 1.87 -5.01 1.87 5.01 -1.87 5.01 z" class="primitive"/>
            </g>
            <g transform="translate(151.82,74.36)" fill="rgba(0,182,141,1)">
              <path d="M-1.87,-5.96 L 1.87 -5.96 1.87 5.96 -1.87 5.96 z" class="primitive"/>
            </g>
            <g transform="translate(148.12,75.17)" fill="rgba(0,182,141,1)">
              <path d="M-1.87,-5.15 L 1.87 -5.15 1.87 5.15 -1.87 5.15 z" class="primitive"/>
            </g>
            <g transform="translate(155.52,74.29)" fill="rgba(0,182,141,1)">
              <path d="M-1.87,-6.03 L 1.87 -6.03 1.87 6.03 -1.87 6.03 z" class="primitive"/>
            </g>
            <g transform="translate(144.42,74.29)" fill="rgba(0,182,141,1)">
              <path d="M-1.87,-6.03 L 1.87 -6.03 1.87 6.03 -1.87 6.03 z" class="primitive"/>
            </g>
            <g transform="translate(166.61,73.82)" fill="rgba(0,182,141,1)">
              <path d="M-1.87,-6.5 L 1.87 -6.5 1.87 6.5 -1.87 6.5 z" class="primitive"/>
            </g>
            <g transform="translate(162.91,73.95)" fill="rgba(0,182,141,1)">
              <path d="M-1.87,-6.36 L 1.87 -6.36 1.87 6.36 -1.87 6.36 z" class="primitive"/>
            </g>
            <g transform="translate(159.22,74.36)" fill="rgba(0,182,141,1)">
              <path d="M-1.87,-5.96 L 1.87 -5.96 1.87 5.96 -1.87 5.96 z" class="primitive"/>
            </g>
            <g transform="translate(140.72,58.58)" fill="rgba(255,108,173,1)">
              <path d="M-1.87,-7.38 L 1.87 -7.38 1.87 7.38 -1.87 7.38 z" class="primitive"/>
            </g>
            <g transform="translate(177.71,60.48)" fill="rgba(255,108,173,1)">
              <path d="M-1.87,-6.16 L 1.87 -6.16 1.87 6.16 -1.87 6.16 z" class="primitive"/>
            </g>
            <g transform="translate(174.01,60.07)" fill="rgba(255,108,173,1)">
              <path d="M-1.87,-6.84 L 1.87 -6.84 1.87 6.84 -1.87 6.84 z" class="primitive"/>
            </g>
            <g transform="translate(170.31,65.22)" fill="rgba(255,108,173,1)">
              <path d="M-1.87,-5.08 L 1.87 -5.08 1.87 5.08 -1.87 5.08 z" class="primitive"/>
            </g>
            <g transform="translate(151.82,61.49)" fill="rgba(255,108,173,1)">
              <path d="M-1.87,-6.91 L 1.87 -6.91 1.87 6.91 -1.87 6.91 z" class="primitive"/>
            </g>
            <g transform="translate(148.12,64.13)" fill="rgba(255,108,173,1)">
              <path d="M-1.87,-5.89 L 1.87 -5.89 1.87 5.89 -1.87 5.89 z" class="primitive"/>
            </g>
            <g transform="translate(155.52,62.85)" fill="rgba(255,108,173,1)">
              <path d="M-1.87,-5.42 L 1.87 -5.42 1.87 5.42 -1.87 5.42 z" class="primitive"/>
            </g>
            <g transform="translate(144.42,60.68)" fill="rgba(255,108,173,1)">
              <path d="M-1.87,-7.58 L 1.87 -7.58 1.87 7.58 -1.87 7.58 z" class="primitive"/>
            </g>
            <g transform="translate(166.61,61.02)" fill="rgba(255,108,173,1)">
              <path d="M-1.87,-6.3 L 1.87 -6.3 1.87 6.3 -1.87 6.3 z" class="primitive"/>
            </g>
            <g transform="translate(162.91,62.98)" fill="rgba(255,108,173,1)">
              <path d="M-1.87,-4.6 L 1.87 -4.6 1.87 4.6 -1.87 4.6 z" class="primitive"/>
            </g>
            <g transform="translate(159.22,62.85)" fill="rgba(255,108,173,1)">
              <path d="M-1.87,-5.55 L 1.87 -5.55 1.87 5.55 -1.87 5.55 z" class="primitive"/>
            </g>
            <g transform="translate(140.72,45.45)" fill="rgba(211,202,57,1)">
              <path d="M-1.87,-5.75 L 1.87 -5.75 1.87 5.75 -1.87 5.75 z" class="primitive"/>
            </g>
            <g transform="translate(177.71,47.95)" fill="rgba(211,202,57,1)">
              <path d="M-1.87,-6.36 L 1.87 -6.36 1.87 6.36 -1.87 6.36 z" class="primitive"/>
            </g>
            <g transform="translate(174.01,46.26)" fill="rgba(211,202,57,1)">
              <path d="M-1.87,-6.97 L 1.87 -6.97 1.87 6.97 -1.87 6.97 z" class="primitive"/>
            </g>
            <g transform="translate(170.31,53.78)" fill="rgba(211,202,57,1)">
              <path d="M-1.87,-6.36 L 1.87 -6.36 1.87 6.36 -1.87 6.36 z" class="primitive"/>
            </g>
            <g transform="translate(151.82,47.68)" fill="rgba(211,202,57,1)">
              <path d="M-1.87,-6.91 L 1.87 -6.91 1.87 6.91 -1.87 6.91 z" class="primitive"/>
            </g>
            <g transform="translate(148.12,52.02)" fill="rgba(211,202,57,1)">
              <path d="M-1.87,-6.23 L 1.87 -6.23 1.87 6.23 -1.87 6.23 z" class="primitive"/>
            </g>
            <g transform="translate(155.52,51.74)" fill="rgba(211,202,57,1)">
              <path d="M-1.87,-5.69 L 1.87 -5.69 1.87 5.69 -1.87 5.69 z" class="primitive"/>
            </g>
            <g transform="translate(144.42,47.14)" fill="rgba(211,202,57,1)">
              <path d="M-1.87,-5.96 L 1.87 -5.96 1.87 5.96 -1.87 5.96 z" class="primitive"/>
            </g>
            <g transform="translate(166.61,48.83)" fill="rgba(211,202,57,1)">
              <path d="M-1.87,-5.89 L 1.87 -5.89 1.87 5.89 -1.87 5.89 z" class="primitive"/>
            </g>
            <g transform="translate(162.91,52.29)" fill="rgba(211,202,57,1)">
              <path d="M-1.87,-6.09 L 1.87 -6.09 1.87 6.09 -1.87 6.09 z" class="primitive"/>
            </g>
            <g transform="translate(159.22,51.81)" fill="rgba(211,202,57,1)">
              <path d="M-1.87,-5.48 L 1.87 -5.48 1.87 5.48 -1.87 5.48 z" class="primitive"/>
            </g>
            <g transform="translate(140.72,34.34)" fill="rgba(0,190,255,1)">
              <path d="M-1.87,-5.35 L 1.87 -5.35 1.87 5.35 -1.87 5.35 z" class="primitive"/>
            </g>
            <g transform="translate(177.71,35.97)" fill="rgba(0,190,255,1)">
              <path d="M-1.87,-5.62 L 1.87 -5.62 1.87 5.62 -1.87 5.62 z" class="primitive"/>
            </g>
            <g transform="translate(174.01,32.65)" fill="rgba(0,190,255,1)">
              <path d="M-1.87,-6.63 L 1.87 -6.63 1.87 6.63 -1.87 6.63 z" class="primitive"/>
            </g>
            <g transform="translate(170.31,40.71)" fill="rgba(0,190,255,1)">
              <path d="M-1.87,-6.7 L 1.87 -6.7 1.87 6.7 -1.87 6.7 z" class="primitive"/>
            </g>
            <g transform="translate(151.82,34.95)" fill="rgba(0,190,255,1)">
              <path d="M-1.87,-5.82 L 1.87 -5.82 1.87 5.82 -1.87 5.82 z" class="primitive"/>
            </g>
            <g transform="translate(148.12,39.35)" fill="rgba(0,190,255,1)">
              <path d="M-1.87,-6.43 L 1.87 -6.43 1.87 6.43 -1.87 6.43 z" class="primitive"/>
            </g>
            <g transform="translate(155.52,38.47)" fill="rgba(0,190,255,1)">
              <path d="M-1.87,-7.58 L 1.87 -7.58 1.87 7.58 -1.87 7.58 z" class="primitive"/>
            </g>
            <g transform="translate(144.42,35.77)" fill="rgba(0,190,255,1)">
              <path d="M-1.87,-5.42 L 1.87 -5.42 1.87 5.42 -1.87 5.42 z" class="primitive"/>
            </g>
            <g transform="translate(166.61,36.65)" fill="rgba(0,190,255,1)">
              <path d="M-1.87,-6.3 L 1.87 -6.3 1.87 6.3 -1.87 6.3 z" class="primitive"/>
            </g>
            <g transform="translate(162.91,40.84)" fill="rgba(0,190,255,1)">
              <path d="M-1.87,-5.35 L 1.87 -5.35 1.87 5.35 -1.87 5.35 z" class="primitive"/>
            </g>
            <g transform="translate(159.22,39.83)" fill="rgba(0,190,255,1)">
              <path d="M-1.87,-6.5 L 1.87 -6.5 1.87 6.5 -1.87 6.5 z" class="primitive"/>
            </g>
          </g>
        </g>
      </g>
    </g>
  </g>
  <g class="guide ylabels" font-size="2.82" font-family="'PT Sans Caption','Helvetica Neue','Helvetica',sans-serif" fill="rgba(108,96,107,1)" id="img-6b2adb4c-12">
    <g transform="translate(119.23,80.32)">
      <g class="primitive">
        <text text-anchor="end" dy="0.35em">0.0</text>
      </g>
    </g>
    <g transform="translate(119.23,66.77)">
      <g class="primitive">
        <text text-anchor="end" dy="0.35em">0.1</text>
      </g>
    </g>
    <g transform="translate(119.23,53.23)">
      <g class="primitive">
        <text text-anchor="end" dy="0.35em">0.2</text>
      </g>
    </g>
    <g transform="translate(119.23,39.69)">
      <g class="primitive">
        <text text-anchor="end" dy="0.35em">0.3</text>
      </g>
    </g>
    <g transform="translate(119.23,26.15)">
      <g class="primitive">
        <text text-anchor="end" dy="0.35em">0.4</text>
      </g>
    </g>
    <g transform="translate(119.23,12.61)">
      <g class="primitive">
        <text text-anchor="end" dy="0.35em">0.5</text>
      </g>
    </g>
  </g>
  <g font-size="3.88" font-family="'PT Sans','Helvetica Neue','Helvetica',sans-serif" fill="rgba(86,73,85,1)" stroke="#000000" stroke-opacity="0.000" id="img-6b2adb4c-13">
    <g transform="translate(110.41,44.46)">
      <g class="primitive">
        <text text-anchor="middle" dy="0.35em" transform="rotate(-90,0, 2)">Density</text>
      </g>
    </g>
  </g>
  <g font-size="3.88" font-family="'PT Sans','Helvetica Neue','Helvetica',sans-serif" fill="rgba(86,73,85,1)" stroke="#000000" stroke-opacity="0.000" id="img-6b2adb4c-14">
    <g transform="translate(159.22,5)">
      <g class="primitive">
        <text text-anchor="middle" dy="0.6em">priorpredk</text>
      </g>
    </g>
  </g>
</g>
<g class="plotroot xscalable yscalable" id="img-6b2adb4c-15">
  <g font-size="3.88" font-family="'PT Sans','Helvetica Neue','Helvetica',sans-serif" fill="rgba(86,73,85,1)" stroke="#000000" stroke-opacity="0.000" id="img-6b2adb4c-16">
    <g transform="translate(57.62,89.99)">
      <g class="primitive">
        <text text-anchor="middle" dy="0.6em">Value</text>
      </g>
    </g>
  </g>
  <g class="guide xlabels" font-size="2.82" font-family="'PT Sans Caption','Helvetica Neue','Helvetica',sans-serif" fill="rgba(108,96,107,1)" id="img-6b2adb4c-17">
    <g transform="translate(20.63,83.32)">
      <g class="primitive">
        <text text-anchor="middle" dy="0.6em">-5</text>
      </g>
    </g>
    <g transform="translate(39.12,83.32)">
      <g class="primitive">
        <text text-anchor="middle" dy="0.6em">0</text>
      </g>
    </g>
    <g transform="translate(57.62,83.32)">
      <g class="primitive">
        <text text-anchor="middle" dy="0.6em">5</text>
      </g>
    </g>
    <g transform="translate(76.11,83.32)">
      <g class="primitive">
        <text text-anchor="middle" dy="0.6em">10</text>
      </g>
    </g>
    <g transform="translate(94.6,83.32)">
      <g class="primitive">
        <text text-anchor="middle" dy="0.6em">15</text>
      </g>
    </g>
  </g>
  <g clip-path="url(#img-6b2adb4c-18)">
    <g id="img-6b2adb4c-19">
      <g pointer-events="visible" fill-opacity="0" fill="rgba(0,0,0,0)" stroke="#000000" stroke-opacity="0.000" class="guide background" id="img-6b2adb4c-20">
        <g transform="translate(57.62,46.46)">
          <path d="M-38.98,-35.85 L 38.98 -35.85 38.98 35.85 -38.98 35.85 z" class="primitive"/>
        </g>
      </g>
      <g class="guide ygridlines xfixed" stroke-dasharray="0.5,0.5" stroke-width="0.2" stroke="#D0D0E0" id="img-6b2adb4c-21">
        <g transform="translate(57.62,80.32)">
          <path fill="none" d="M-38.98,0 L 38.98 0" class="primitive"/>
        </g>
        <g transform="translate(57.62,63.39)">
          <path fill="none" d="M-38.98,0 L 38.98 0" class="primitive"/>
        </g>
        <g transform="translate(57.62,46.46)">
          <path fill="none" d="M-38.98,0 L 38.98 0" class="primitive"/>
        </g>
        <g transform="translate(57.62,29.54)">
          <path fill="none" d="M-38.98,0 L 38.98 0" class="primitive"/>
        </g>
        <g transform="translate(57.62,12.61)">
          <path fill="none" d="M-38.98,0 L 38.98 0" class="primitive"/>
        </g>
      </g>
      <g class="guide xgridlines yfixed" stroke-dasharray="0.5,0.5" stroke-width="0.2" stroke="#D0D0E0" id="img-6b2adb4c-22">
        <g transform="translate(20.63,46.46)">
          <path fill="none" d="M0,-35.85 L 0 35.85" class="primitive"/>
        </g>
        <g transform="translate(39.12,46.46)">
          <path fill="none" d="M0,-35.85 L 0 35.85" class="primitive"/>
        </g>
        <g transform="translate(57.62,46.46)">
          <path fill="none" d="M0,-35.85 L 0 35.85" class="primitive"/>
        </g>
        <g transform="translate(76.11,46.46)">
          <path fill="none" d="M0,-35.85 L 0 35.85" class="primitive"/>
        </g>
        <g transform="translate(94.6,46.46)">
          <path fill="none" d="M0,-35.85 L 0 35.85" class="primitive"/>
        </g>
      </g>
      <g class="plotpanel" id="img-6b2adb4c-23">
        <metadata>
          <boundingbox value="18.63166666666666mm 10.611666666666665mm 77.96833333333332mm 71.70333333333333mm"/>
          <unitbox value="-5.540771951961425 0.8236325144010636 21.08154390392285 -0.847265028802127"/>
        </metadata>
        <g shape-rendering="crispEdges" stroke-width="0.3" id="img-6b2adb4c-24">
          <g stroke="#000000" stroke-opacity="0.000" class="geometry" id="img-6b2adb4c-25">
            <g transform="translate(50.22,74.6)" fill="rgba(0,182,141,1)">
              <path d="M-1.87,-5.71 L 1.87 -5.71 1.87 5.71 -1.87 5.71 z" class="primitive"/>
            </g>
            <g transform="translate(57.62,72.49)" fill="rgba(0,182,141,1)">
              <path d="M-1.87,-7.83 L 1.87 -7.83 1.87 7.83 -1.87 7.83 z" class="primitive"/>
            </g>
            <g transform="translate(46.52,77.56)" fill="rgba(0,182,141,1)">
              <path d="M-1.87,-2.75 L 1.87 -2.75 1.87 2.75 -1.87 2.75 z" class="primitive"/>
            </g>
            <g transform="translate(42.82,78.58)" fill="rgba(0,182,141,1)">
              <path d="M-1.87,-1.73 L 1.87 -1.73 1.87 1.73 -1.87 1.73 z" class="primitive"/>
            </g>
            <g transform="translate(61.31,73.33)" fill="rgba(0,182,141,1)">
              <path d="M-1.87,-6.98 L 1.87 -6.98 1.87 6.98 -1.87 6.98 z" class="primitive"/>
            </g>
            <g transform="translate(65.01,75.36)" fill="rgba(0,182,141,1)">
              <path d="M-1.87,-4.95 L 1.87 -4.95 1.87 4.95 -1.87 4.95 z" class="primitive"/>
            </g>
            <g transform="translate(53.92,73.63)" fill="rgba(0,182,141,1)">
              <path d="M-1.87,-6.69 L 1.87 -6.69 1.87 6.69 -1.87 6.69 z" class="primitive"/>
            </g>
            <g transform="translate(68.71,76.8)" fill="rgba(0,182,141,1)">
              <path d="M-1.87,-3.51 L 1.87 -3.51 1.87 3.51 -1.87 3.51 z" class="primitive"/>
            </g>
            <g transform="translate(72.41,78.54)" fill="rgba(0,182,141,1)">
              <path d="M-1.87,-1.78 L 1.87 -1.78 1.87 1.78 -1.87 1.78 z" class="primitive"/>
            </g>
            <g transform="translate(39.12,80.19)" fill="rgba(0,182,141,1)">
              <path d="M-1.87,-0.13 L 1.87 -0.13 1.87 0.13 -1.87 0.13 z" class="primitive"/>
            </g>
            <g transform="translate(76.11,80.06)" fill="rgba(0,182,141,1)">
              <path d="M-1.87,-0.25 L 1.87 -0.25 1.87 0.25 -1.87 0.25 z" class="primitive"/>
            </g>
            <g transform="translate(50.22,63.18)" fill="rgba(255,108,173,1)">
              <path d="M-1.87,-5.71 L 1.87 -5.71 1.87 5.71 -1.87 5.71 z" class="primitive"/>
            </g>
            <g transform="translate(57.62,57.04)" fill="rgba(255,108,173,1)">
              <path d="M-1.87,-7.62 L 1.87 -7.62 1.87 7.62 -1.87 7.62 z" class="primitive"/>
            </g>
            <g transform="translate(46.52,71.47)" fill="rgba(255,108,173,1)">
              <path d="M-1.87,-3.34 L 1.87 -3.34 1.87 3.34 -1.87 3.34 z" class="primitive"/>
            </g>
            <g transform="translate(42.82,75.36)" fill="rgba(255,108,173,1)">
              <path d="M-1.87,-1.48 L 1.87 -1.48 1.87 1.48 -1.87 1.48 z" class="primitive"/>
            </g>
            <g transform="translate(61.31,59.75)" fill="rgba(255,108,173,1)">
              <path d="M-1.87,-6.6 L 1.87 -6.6 1.87 6.6 -1.87 6.6 z" class="primitive"/>
            </g>
            <g transform="translate(65.01,64.7)" fill="rgba(255,108,173,1)">
              <path d="M-1.87,-5.71 L 1.87 -5.71 1.87 5.71 -1.87 5.71 z" class="primitive"/>
            </g>
            <g transform="translate(53.92,60.68)" fill="rgba(255,108,173,1)">
              <path d="M-1.87,-6.26 L 1.87 -6.26 1.87 6.26 -1.87 6.26 z" class="primitive"/>
            </g>
            <g transform="translate(68.71,70.29)" fill="rgba(255,108,173,1)">
              <path d="M-1.87,-3 L 1.87 -3 1.87 3 -1.87 3 z" class="primitive"/>
            </g>
            <g transform="translate(72.41,75.03)" fill="rgba(255,108,173,1)">
              <path d="M-1.87,-1.73 L 1.87 -1.73 1.87 1.73 -1.87 1.73 z" class="primitive"/>
            </g>
            <g transform="translate(39.12,79.68)" fill="rgba(255,108,173,1)">
              <path d="M-1.87,-0.38 L 1.87 -0.38 1.87 0.38 -1.87 0.38 z" class="primitive"/>
            </g>
            <g transform="translate(76.11,79.34)" fill="rgba(255,108,173,1)">
              <path d="M-1.87,-0.47 L 1.87 -0.47 1.87 0.47 -1.87 0.47 z" class="primitive"/>
            </g>
            <g transform="translate(50.22,52.68)" fill="rgba(211,202,57,1)">
              <path d="M-1.87,-4.78 L 1.87 -4.78 1.87 4.78 -1.87 4.78 z" class="primitive"/>
            </g>
            <g transform="translate(57.62,41.68)" fill="rgba(211,202,57,1)">
              <path d="M-1.87,-7.74 L 1.87 -7.74 1.87 7.74 -1.87 7.74 z" class="primitive"/>
            </g>
            <g transform="translate(46.52,65.12)" fill="rgba(211,202,57,1)">
              <path d="M-1.87,-3 L 1.87 -3 1.87 3 -1.87 3 z" class="primitive"/>
            </g>
            <g transform="translate(42.82,72.95)" fill="rgba(211,202,57,1)">
              <path d="M-1.87,-0.93 L 1.87 -0.93 1.87 0.93 -1.87 0.93 z" class="primitive"/>
            </g>
            <g transform="translate(61.31,46.04)" fill="rgba(211,202,57,1)">
              <path d="M-1.87,-7.11 L 1.87 -7.11 1.87 7.11 -1.87 7.11 z" class="primitive"/>
            </g>
            <g transform="translate(65.01,53.4)" fill="rgba(211,202,57,1)">
              <path d="M-1.87,-5.59 L 1.87 -5.59 1.87 5.59 -1.87 5.59 z" class="primitive"/>
            </g>
            <g transform="translate(53.92,47.06)" fill="rgba(211,202,57,1)">
              <path d="M-1.87,-7.36 L 1.87 -7.36 1.87 7.36 -1.87 7.36 z" class="primitive"/>
            </g>
            <g transform="translate(68.71,63.9)" fill="rgba(211,202,57,1)">
              <path d="M-1.87,-3.39 L 1.87 -3.39 1.87 3.39 -1.87 3.39 z" class="primitive"/>
            </g>
            <g transform="translate(72.41,71.81)" fill="rgba(211,202,57,1)">
              <path d="M-1.87,-1.48 L 1.87 -1.48 1.87 1.48 -1.87 1.48 z" class="primitive"/>
            </g>
            <g transform="translate(39.12,78.79)" fill="rgba(211,202,57,1)">
              <path d="M-1.87,-0.51 L 1.87 -0.51 1.87 0.51 -1.87 0.51 z" class="primitive"/>
            </g>
            <g transform="translate(76.11,78.45)" fill="rgba(211,202,57,1)">
              <path d="M-1.87,-0.42 L 1.87 -0.42 1.87 0.42 -1.87 0.42 z" class="primitive"/>
            </g>
            <g transform="translate(50.22,41.81)" fill="rgba(0,190,255,1)">
              <path d="M-1.87,-6.09 L 1.87 -6.09 1.87 6.09 -1.87 6.09 z" class="primitive"/>
            </g>
            <g transform="translate(57.62,26.15)" fill="rgba(0,190,255,1)">
              <path d="M-1.87,-7.79 L 1.87 -7.79 1.87 7.79 -1.87 7.79 z" class="primitive"/>
            </g>
            <g transform="translate(46.52,58.73)" fill="rgba(0,190,255,1)">
              <path d="M-1.87,-3.39 L 1.87 -3.39 1.87 3.39 -1.87 3.39 z" class="primitive"/>
            </g>
            <g transform="translate(42.82,70.33)" fill="rgba(0,190,255,1)">
              <path d="M-1.87,-1.69 L 1.87 -1.69 1.87 1.69 -1.87 1.69 z" class="primitive"/>
            </g>
            <g transform="translate(61.31,32.08)" fill="rgba(0,190,255,1)">
              <path d="M-1.87,-6.85 L 1.87 -6.85 1.87 6.85 -1.87 6.85 z" class="primitive"/>
            </g>
            <g transform="translate(65.01,42.23)" fill="rgba(0,190,255,1)">
              <path d="M-1.87,-5.59 L 1.87 -5.59 1.87 5.59 -1.87 5.59 z" class="primitive"/>
            </g>
            <g transform="translate(53.92,33.26)" fill="rgba(0,190,255,1)">
              <path d="M-1.87,-6.43 L 1.87 -6.43 1.87 6.43 -1.87 6.43 z" class="primitive"/>
            </g>
            <g transform="translate(68.71,57.72)" fill="rgba(0,190,255,1)">
              <path d="M-1.87,-2.79 L 1.87 -2.79 1.87 2.79 -1.87 2.79 z" class="primitive"/>
            </g>
            <g transform="translate(72.41,69.1)" fill="rgba(0,190,255,1)">
              <path d="M-1.87,-1.23 L 1.87 -1.23 1.87 1.23 -1.87 1.23 z" class="primitive"/>
            </g>
            <g transform="translate(39.12,78.11)" fill="rgba(0,190,255,1)">
              <path d="M-1.87,-0.17 L 1.87 -0.17 1.87 0.17 -1.87 0.17 z" class="primitive"/>
            </g>
            <g transform="translate(76.11,77.73)" fill="rgba(0,190,255,1)">
              <path d="M-1.87,-0.3 L 1.87 -0.3 1.87 0.3 -1.87 0.3 z" class="primitive"/>
            </g>
          </g>
        </g>
      </g>
    </g>
  </g>
  <g class="guide ylabels" font-size="2.82" font-family="'PT Sans Caption','Helvetica Neue','Helvetica',sans-serif" fill="rgba(108,96,107,1)" id="img-6b2adb4c-26">
    <g transform="translate(17.63,80.32)">
      <g class="primitive">
        <text text-anchor="end" dy="0.35em">0.0</text>
      </g>
    </g>
    <g transform="translate(17.63,63.39)">
      <g class="primitive">
        <text text-anchor="end" dy="0.35em">0.2</text>
      </g>
    </g>
    <g transform="translate(17.63,46.46)">
      <g class="primitive">
        <text text-anchor="end" dy="0.35em">0.4</text>
      </g>
    </g>
    <g transform="translate(17.63,29.54)">
      <g class="primitive">
        <text text-anchor="end" dy="0.35em">0.6</text>
      </g>
    </g>
    <g transform="translate(17.63,12.61)">
      <g class="primitive">
        <text text-anchor="end" dy="0.35em">0.8</text>
      </g>
    </g>
  </g>
  <g font-size="3.88" font-family="'PT Sans','Helvetica Neue','Helvetica',sans-serif" fill="rgba(86,73,85,1)" stroke="#000000" stroke-opacity="0.000" id="img-6b2adb4c-27">
    <g transform="translate(8.81,44.46)">
      <g class="primitive">
        <text text-anchor="middle" dy="0.35em" transform="rotate(-90,0, 2)">Density</text>
      </g>
    </g>
  </g>
  <g font-size="3.88" font-family="'PT Sans','Helvetica Neue','Helvetica',sans-serif" fill="rgba(86,73,85,1)" stroke="#000000" stroke-opacity="0.000" id="img-6b2adb4c-28">
    <g transform="translate(57.62,5)">
      <g class="primitive">
        <text text-anchor="middle" dy="0.6em">postpredk</text>
      </g>
    </g>
  </g>
</g>
<defs>
  <clipPath id="img-6b2adb4c-4">
    <path d="M120.23,10.61 L 198.2 10.61 198.2 82.32 120.23 82.32" />
  </clipPath>
  <clipPath id="img-6b2adb4c-18">
    <path d="M18.63,10.61 L 96.6 10.61 96.6 82.32 18.63 82.32" />
  </clipPath>
</defs>
</svg>
